<svg xmlns="http://www.w3.org/2000/svg" viewBox="0 0 400 260" role="img" aria-label="Cultivos afectados por olas de calor y sequía prolongada">
<defs>
  <radialGradient id="cpG" cx=".5" cy=".3"><stop offset="0" stop-color="#FF6B6B" stop-opacity=".2"/><stop offset="1" stop-color="#FF6B6B" stop-opacity="0"/></radialGradient>
  <linearGradient id="cpT" x1="0" y1="0" x2="0" y2="1"><stop offset="0" stop-color="#8a6a45"/><stop offset="1" stop-color="#5c4527"/></linearGradient>
</defs>
<ellipse cx="200" cy="110" rx="180" ry="110" fill="url(#cpG)"/>
<circle cx="316" cy="60" r="28" fill="#FF6B6B" opacity=".25"/>
<circle cx="316" cy="60" r="18" fill="#ffcf9e" opacity=".5"/>
<g stroke="#FF6B6B" stroke-width="2.4" stroke-linecap="round" opacity=".7">
  <path d="M316 18 v-10 M316 112 v10 M274 60 h-10 M358 60 h10 M288 32 l-7 -7 M344 88 l7 7 M344 32 l7 -7 M288 88 l-7 7"/>
  <animateTransform attributeName="transform" type="rotate" from="0 316 60" to="360 316 60" dur="50s" repeatCount="indefinite"/>
</g>
<rect y="186" width="400" height="74" fill="url(#cpT)" opacity=".85"/>
<g stroke="#7a5f3a" stroke-width="1.6" opacity=".6"><path d="M0 206 h400 M0 226 h400 M0 246 h400"/></g>
<g stroke="#8a6a45" stroke-width="1.4" opacity=".8" fill="none"><path d="M60 186 q10 14 -4 30 M180 186 q-12 12 2 30 M300 186 q10 16 -6 28"/></g>
<g stroke="#9aa860" stroke-width="4" fill="none" stroke-linecap="round">
  <path d="M74 186 v-40"/><path d="M74 160 q-18 -6 -22 -22 M74 168 q18 -8 22 -24"/>
  <path d="M156 186 v-34"/><path d="M156 166 q-16 -8 -18 -22 M156 172 q16 -6 20 -20"/>
</g>
<g stroke="#8a7a4a" stroke-width="4" fill="none" stroke-linecap="round" opacity=".75">
  <path d="M244 186 q6 -22 -4 -32"/><path d="M240 162 q-16 0 -20 -14"/>
  <path d="M330 186 q-8 -20 2 -30"/><path d="M332 160 q16 -2 18 -16"/>
</g>
<g fill="#c9b18c" opacity=".55">
  <ellipse cx="120" cy="212" rx="14" ry="4"/><ellipse cx="270" cy="230" rx="18" ry="5"/>
</g>
<text x="200" y="34" font-family="monospace" font-size="11.5" fill="#FF6B6B" text-anchor="middle">olas de calor · sequías prolongadas</text>
</svg>
