<svg xmlns="http://www.w3.org/2000/svg" viewBox="0 0 400 260" role="img" aria-label="Estrategia: acomodarse elevando la vivienda">
<defs><radialGradient id="eaG" cx=".5" cy=".5"><stop offset="0" stop-color="#00F5FF" stop-opacity=".18"/><stop offset="1" stop-color="#00F5FF" stop-opacity="0"/></radialGradient></defs>
<ellipse cx="200" cy="130" rx="180" ry="115" fill="url(#eaG)"/>
<g stroke="#8a6f4e" stroke-width="7" stroke-linecap="round"><path d="M132 208 V124 M172 212 V124 M240 212 V124 M280 208 V124"/></g>
<rect x="118" y="96" width="176" height="30" rx="3" fill="#a98457"/>
<path d="M106 96 L206 52 L306 96 Z" fill="#c99f68"/>
<rect x="150" y="102" width="20" height="20" rx="2" fill="#0B1E36" opacity=".65"/>
<rect x="242" y="102" width="20" height="20" rx="2" fill="#0B1E36" opacity=".65"/>
<path d="M294 126 l34 40" stroke="#8a6f4e" stroke-width="4" stroke-linecap="round"/>
<g stroke="#00F5FF" stroke-width="2" fill="none" stroke-linecap="round" opacity=".85">
  <path d="M62 200 v-46"><animate attributeName="opacity" values=".3;.9;.3" dur="3.4s" repeatCount="indefinite"/></path>
  <path d="M52 162 l10 -10 10 10"><animate attributeName="opacity" values=".3;.9;.3" dur="3.4s" repeatCount="indefinite"/></path>
</g>
<path d="M0 196 q50 -12 100 0 t100 0 t100 0 t100 0 t100 0 v70 H0 Z" fill="#00B4D8" opacity=".38">
  <animateTransform attributeName="transform" type="translate" values="0 4;-200 -4;0 4" dur="11s" repeatCount="indefinite"/>
</path>
<path d="M0 196 q50 -12 100 0 t100 0 t100 0 t100 0 t100 0" fill="none" stroke="#00F5FF" stroke-width="1.8" opacity=".7">
  <animateTransform attributeName="transform" type="translate" values="0 4;-200 -4;0 4" dur="11s" repeatCount="indefinite"/>
</path>
</svg>
